<svg width="450" height="450" viewBox="0 0 450 450" fill="none" xmlns="http://www.w3.org/2000/svg">
<g clip-path="url(#clip0_1_436)">
<path fill-rule="evenodd" clip-rule="evenodd" d="M481.787 16.9619L413.498 485.006L-31.7873 420.038L36.5015 -48.0063L481.787 16.9619ZM202.757 56.6163C186.634 66.4727 172.383 75.1844 155.386 66.8109C149.033 63.6811 146.909 59.1051 144.45 53.8074C143.39 51.5228 142.268 49.1041 140.717 46.6093C137.881 42.0463 136.365 37.8465 134.903 33.7973C132.958 28.409 131.11 23.2873 126.374 17.9311C111.16 0.725135 90.1978 -22.7778 71.2302 -2.52943C62.2532 7.05378 77.4324 20.1982 91.4512 32.3379C107.053 45.8481 121.217 58.1139 99.0487 62.8414C89.9298 64.786 82.6157 60.6742 75.4514 56.6465C43.1381 38.4806 36.3913 109.687 53.9631 137.017C59.4975 145.625 72.8803 155.153 72.8803 155.153C72.8803 155.153 89.0174 165.668 92.041 176.858C96.3356 192.752 84.4818 202.582 72.2973 212.685C60.6786 222.319 48.7591 232.203 50.2543 247.832C51.5686 261.57 62.0434 269.018 72.332 276.332C83.1103 283.995 93.6844 291.513 93.3086 305.966C92.9204 320.895 77.9086 327.88 63.6894 334.495C48.7248 341.457 34.638 348.011 39.3993 362.988C48.0427 390.175 82.02 394.793 108.915 385.314C119.965 381.42 124.293 372.148 128.638 362.84C132.928 353.648 137.235 344.422 148.047 340.304C173.375 330.657 207.705 329.414 215.802 355.29C219.38 366.726 211.132 373.862 202.494 381.336C194.584 388.18 186.347 395.306 186.559 406.276C187.411 450.284 283.606 464.128 298.019 422.539C300.202 416.241 298.732 410.46 297.31 404.869C295.667 398.407 294.088 392.2 298.291 385.743C305.61 374.499 320.257 387.94 333.58 400.165C346.128 411.681 357.502 422.118 360.471 409.833C362.277 402.359 358.338 397.066 354.289 391.627C350.571 386.631 346.761 381.512 347.225 374.465C347.955 363.386 356.533 358.276 365.25 353.084C373.63 348.092 382.139 343.023 383.93 332.501C385.778 321.636 378.727 313.828 371.83 306.189C364.578 298.157 357.495 290.313 361.11 279.303C364.192 269.913 372.695 267.036 381.232 264.147C389.683 261.288 398.169 258.416 401.463 249.205C405.479 237.974 398.131 229.601 390.683 221.115C383.424 212.845 376.072 204.467 379.048 193.232C381.431 184.235 390.421 180.046 398.841 176.123C408.33 171.703 417.094 167.62 414.862 157.372C412.861 148.19 404.027 147.202 394.818 146.172C386.147 145.202 377.143 144.196 373.199 136.276C367.521 124.872 376.941 116.77 386.764 108.322C396.139 100.259 405.88 91.8811 403.211 80.018C399.124 61.8516 380.277 77.9021 360.544 94.7067C340.159 112.067 318.829 130.232 311.851 112.307C307.394 100.856 313.972 91.9238 320.69 82.8011C321.643 81.5076 322.718 80.1438 323.832 78.7317C330.197 70.6581 337.809 61.0047 330.854 53.8767C304.743 27.1159 234.319 41.6946 227.416 44.7352C225.51 45.5749 224.006 46.1052 222.487 46.6405C218.507 48.0438 214.429 49.4815 202.757 56.6163Z" fill="#97D5CA"/>
<path fill-rule="evenodd" clip-rule="evenodd" d="M472.933 6.16379L424.724 476.701L-22.9327 430.836L25.2759 -39.7006L472.933 6.16379ZM195.854 57.7157C180.167 68.2526 166.302 77.5659 148.962 69.927C142.481 67.0717 140.163 62.5907 137.481 57.403C136.324 55.166 135.099 52.7975 133.443 50.3713C130.414 45.9337 128.72 41.8026 127.086 37.8196C124.913 32.5194 122.847 27.4815 117.886 22.3327C101.95 5.7932 80.002 -16.7917 61.9178 4.24935C53.3589 14.2077 69.0863 26.6909 83.6115 38.2199C99.7767 51.0505 114.453 62.6993 92.5067 68.3706C83.4793 70.7034 75.9961 66.9082 68.666 63.1906C35.6054 46.4233 31.9101 117.853 50.6348 144.407C56.5322 152.77 70.3103 161.717 70.3103 161.717C70.3103 161.717 86.8824 171.532 90.3818 182.583C95.3523 198.279 83.9297 208.606 72.1884 219.221C60.9923 229.344 49.5065 239.728 51.6688 255.279C53.5695 268.949 64.3531 275.941 74.9452 282.809C86.0414 290.004 96.9274 297.062 97.17 311.519C97.4206 326.451 82.7213 334.07 68.7981 341.288C54.1449 348.884 40.3513 356.034 45.7488 370.793C55.547 397.586 89.6908 400.747 116.156 390.126C127.029 385.763 130.956 376.314 134.899 366.829C138.793 357.463 142.701 348.06 153.327 343.484C178.22 332.763 212.465 330.052 221.661 355.558C225.725 366.83 217.79 374.313 209.479 382.15C201.869 389.325 193.944 396.798 194.626 407.749C197.359 451.68 294.058 461.397 306.679 419.229C308.59 412.844 306.874 407.131 305.215 401.606C303.297 395.22 301.454 389.086 305.377 382.456C312.209 370.908 327.417 383.711 341.25 395.355C354.28 406.323 366.089 416.265 368.53 403.864C370.015 396.319 365.853 391.2 361.576 385.939C357.647 381.107 353.622 376.155 353.784 369.095C354.039 357.995 362.39 352.523 370.878 346.962C379.037 341.617 387.321 336.189 388.66 325.6C390.042 314.666 382.664 307.166 375.446 299.829C367.857 292.115 360.446 284.581 363.586 273.426C366.263 263.913 374.635 260.675 383.041 257.424C391.363 254.205 399.717 250.974 402.615 241.63C406.147 230.238 398.447 222.187 390.643 214.026C383.038 206.074 375.333 198.019 377.826 186.667C379.822 177.576 388.625 173.006 396.87 168.727C406.161 163.905 414.743 159.451 412.074 149.307C409.682 140.219 400.814 139.61 391.569 138.975C382.865 138.377 373.826 137.757 369.547 130.013C363.386 118.862 372.452 110.365 381.904 101.504C390.926 93.0476 400.299 84.2609 397.126 72.5228C392.265 54.5478 374.122 71.3897 355.126 89.0229C335.502 107.239 314.968 126.3 307.23 108.69C302.287 97.4402 308.477 88.2344 314.799 78.8327C315.696 77.4996 316.712 76.0911 317.764 74.6326C323.778 66.2942 330.97 56.3241 323.716 49.5001C296.484 23.8805 226.749 41.4578 219.982 44.7909C218.114 45.7113 216.634 46.3054 215.14 46.9052C211.223 48.4775 207.21 50.0883 195.854 57.7157Z" fill="#86B9B0"/>
<path fill-rule="evenodd" clip-rule="evenodd" d="M450 -18V455H0L2.41195e-05 -18H450ZM179.619 61.5235C165.088 73.6044 152.244 84.2824 134.215 78.4505C127.477 76.2707 124.715 72.0492 121.517 67.162C120.138 65.0545 118.678 62.8232 116.784 60.5784C113.318 56.4726 111.212 52.5357 109.181 48.7399C106.479 43.6889 103.91 38.8877 98.4503 34.2714C80.9116 19.4422 56.7761 -0.78812 40.9306 21.9865C33.4312 32.7654 50.349 43.5806 65.9736 53.5692C83.3623 64.6854 99.1492 74.7777 77.8954 82.6562C69.1529 85.897 61.3217 82.8842 53.6509 79.9331C19.0536 66.6227 22.6577 138.057 43.9913 162.564C50.7104 170.283 65.3286 177.779 65.3286 177.779C65.3286 177.779 82.8147 185.854 87.4222 196.49C93.9665 211.598 83.656 223.035 73.0578 234.792C62.9517 246.003 52.5841 257.504 56.3201 272.753C59.604 286.158 71.0442 292.015 82.2811 297.768C94.0529 303.794 105.602 309.707 107.316 324.063C109.088 338.891 95.2414 347.97 82.1263 356.569C68.3236 365.619 55.3306 374.138 62.2043 388.27C74.6821 413.924 108.97 413.589 134.215 400.326C144.587 394.877 147.531 385.078 150.486 375.24C153.405 365.525 156.335 355.774 166.438 350.138C190.109 336.935 223.9 330.748 235.648 355.185C240.839 365.984 233.708 374.236 226.239 382.879C219.4 390.793 212.278 399.035 214.072 409.859C221.269 453.283 318.455 453.093 326.712 409.859C327.963 403.312 325.673 397.804 323.46 392.477C320.9 386.32 318.442 380.405 321.669 373.41C327.288 361.226 343.722 372.412 358.67 382.586C372.75 392.169 385.511 400.855 386.675 388.27C387.383 380.613 382.721 375.945 377.93 371.147C373.53 366.74 369.02 362.225 368.462 355.185C367.584 344.117 375.335 337.822 383.211 331.425C390.783 325.276 398.471 319.032 398.724 308.362C398.984 297.344 390.88 290.635 382.952 284.072C374.616 277.171 366.475 270.432 368.462 259.015C370.156 249.279 378.155 245.204 386.186 241.113C394.136 237.063 402.117 232.997 404.047 223.407C406.4 211.714 397.92 204.49 389.324 197.167C380.948 190.032 372.463 182.803 373.786 171.256C374.845 162.009 383.136 156.567 390.902 151.469C399.653 145.725 407.736 140.419 404.047 130.601C400.742 121.804 391.858 122.102 382.597 122.412C373.876 122.705 364.822 123.008 359.776 115.741C352.51 105.277 360.663 95.8992 369.163 86.1214C377.275 76.7896 385.705 67.0933 381.351 55.7398C374.684 38.3537 358.352 56.9572 341.252 76.4345C323.587 96.5562 305.103 117.611 295.61 100.881C289.546 90.1934 294.766 80.4047 300.097 70.4076C300.853 68.9901 301.72 67.4853 302.618 65.9272C307.751 57.0192 313.889 46.3681 305.978 40.3189C276.276 17.6082 208.695 42.2015 202.304 46.2069C200.539 47.3129 199.127 48.0548 197.702 48.8037C193.966 50.767 190.138 52.7785 179.619 61.5235Z" fill="#4C7273"/>
<g filter="url(#filter0_ddd_1_436)">
<path d="M111.084 203.27L114.803 193.816L104.753 189.862L108.414 180.556L118.464 184.51L122.243 174.907L131.623 178.597L127.845 188.201L137.82 192.125L134.159 201.431L124.183 197.506L120.464 206.961L111.084 203.27ZM146.927 225.797C145.488 225.231 143.914 224.497 142.206 223.596C140.527 222.763 138.888 221.832 137.287 220.801C135.736 219.79 134.423 218.757 133.348 217.704L137.272 207.728C138.268 208.693 139.433 209.667 140.765 210.65C142.167 211.602 143.573 212.471 144.984 213.255C146.445 214.059 147.77 214.695 148.962 215.164C152.039 216.374 154.482 216.791 156.293 216.415C158.153 216.057 159.532 214.737 160.43 212.454C161.23 210.419 161.285 208.75 160.595 207.447C159.973 206.113 158.223 204.88 155.344 203.748L140.827 198.037L143.2 192.006L152.608 171.809L182.386 183.524L177.861 192.404L159.249 185.082L155.301 193.587L161.555 196.047C167.362 198.332 171.097 201.291 172.762 204.927C174.496 208.532 174.396 212.791 172.463 217.704C170.589 222.469 167.472 225.656 163.114 227.265C158.824 228.845 153.429 228.355 146.927 225.797ZM171.302 234.527L173.499 228.944C175.932 226.692 178.621 224.884 181.565 223.52C184.558 222.176 187.735 220.876 191.095 219.619C194.198 218.432 196.663 217.482 198.492 216.769C200.32 216.055 201.731 215.235 202.726 214.308C203.771 213.401 204.606 212.154 205.231 210.565C206.832 206.496 205.002 203.426 199.741 201.356C197.706 200.556 195.599 200.013 193.418 199.728C191.257 199.394 189.147 199.223 187.087 199.214L191.158 188.867C193.367 188.933 195.849 189.251 198.606 189.82C201.412 190.408 204.106 191.21 206.686 192.225C212.295 194.431 216.006 197.525 217.822 201.506C219.637 205.487 219.539 210.033 217.528 215.145C216.395 218.024 214.739 220.267 212.559 221.874C210.399 223.431 207.52 224.849 203.923 226.127C201.273 227.033 198.872 227.894 196.717 228.708C194.632 229.492 192.731 230.464 191.014 231.623L208.807 238.623L205.175 247.854L171.302 234.527ZM231.493 259.756C226.133 257.647 222.196 254.98 219.682 251.756C217.168 248.532 215.898 244.765 215.874 240.457C215.919 236.119 216.986 231.295 219.075 225.984C221.164 220.674 223.661 216.441 226.564 213.285C229.518 210.148 233.013 208.256 237.05 207.61C241.107 206.913 245.815 207.619 251.175 209.728C256.585 211.856 260.512 214.548 262.957 217.802C265.471 221.027 266.741 224.793 266.765 229.101C266.789 233.409 265.757 238.218 263.668 243.529C261.579 248.839 259.047 253.087 256.075 256.273C253.121 259.41 249.626 261.302 245.589 261.948C241.601 262.615 236.903 261.884 231.493 259.756ZM235.535 249.482C239.307 250.966 242.401 250.75 244.816 248.835C247.301 246.89 249.49 243.51 251.384 238.696C253.278 233.882 253.969 229.941 253.456 226.874C253.013 223.776 250.905 221.486 247.133 220.002C243.361 218.518 240.233 218.748 237.748 220.694C235.333 222.609 233.178 225.974 231.284 230.788C229.39 235.602 228.665 239.558 229.108 242.655C229.621 245.722 231.763 247.998 235.535 249.482ZM274.974 275.315L277.492 268.912L301.411 255.971L285.703 249.791L289.452 240.262L320.347 252.417L317.594 259.415L294.165 272.205L310.617 278.678L306.985 287.909L274.974 275.315ZM323.68 295.337C319.809 293.814 317.361 291.877 316.338 289.525C315.314 287.174 315.535 284.137 316.999 280.415L320.66 271.109L313.501 271.387L316.87 262.826L324.029 262.548L332.845 240.14L344.83 244.855L338.064 262.052L345.402 261.758L342.033 270.319L334.696 270.613L329.454 283.939C329.004 285.081 328.915 285.963 329.186 286.585C329.526 287.177 330.168 287.659 331.111 288.03C332.451 288.557 333.71 288.852 334.889 288.915L331.697 297.029C330.38 297.027 329.111 296.9 327.892 296.65C326.722 296.419 325.318 295.981 323.68 295.337Z" fill="#041421"/>
</g>
</g>
<defs>
<filter id="filter0_ddd_1_436" x="80.7999" y="142.322" width="287.562" height="177.457" filterUnits="userSpaceOnUse" color-interpolation-filters="sRGB">
<feFlood flood-opacity="0" result="BackgroundImageFix"/>
<feColorMatrix in="SourceAlpha" type="matrix" values="0 0 0 0 0 0 0 0 0 0 0 0 0 0 0 0 0 0 127 0" result="hardAlpha"/>
<feOffset dy="1.12694"/>
<feGaussianBlur stdDeviation="2.56692"/>
<feColorMatrix type="matrix" values="0 0 0 0 0.0156863 0 0 0 0 0.0784314 0 0 0 0 0.129412 0 0 0 0.055 0"/>
<feBlend mode="normal" in2="BackgroundImageFix" result="effect1_dropShadow_1_436"/>
<feColorMatrix in="SourceAlpha" type="matrix" values="0 0 0 0 0 0 0 0 0 0 0 0 0 0 0 0 0 0 127 0" result="hardAlpha"/>
<feOffset dy="2.01027"/>
<feGaussianBlur stdDeviation="4.57894"/>
<feColorMatrix type="matrix" values="0 0 0 0 0.0156863 0 0 0 0 0.0784314 0 0 0 0 0.129412 0 0 0 0.0655718 0"/>
<feBlend mode="normal" in2="effect1_dropShadow_1_436" result="effect2_dropShadow_1_436"/>
<feColorMatrix in="SourceAlpha" type="matrix" values="0 0 0 0 0 0 0 0 0 0 0 0 0 0 0 0 0 0 127 0" result="hardAlpha"/>
<feOffset dy="3.75998"/>
<feGaussianBlur stdDeviation="8.56441"/>
<feColorMatrix type="matrix" values="0 0 0 0 0.0156863 0 0 0 0 0.0784314 0 0 0 0 0.129412 0 0 0 0.079074 0"/>
<feBlend mode="normal" in2="effect2_dropShadow_1_436" result="effect3_dropShadow_1_436"/>
<feBlend mode="normal" in="SourceGraphic" in2="effect3_dropShadow_1_436" result="shape"/>
</filter>
<clipPath id="clip0_1_436">
<rect width="450" height="450" fill="white"/>
</clipPath>
</defs>
</svg>
