<svg width="155" height="125" viewBox="0 0 155 125" fill="none" xmlns="http://www.w3.org/2000/svg">
<path d="M149.702 46.1345L149.217 45.9054C147.801 45.2013 146.333 44.6061 144.826 44.1248C141.064 43.0458 137.213 42.0207 133.489 41.0296C132.08 40.659 130.67 40.2834 129.261 39.9032C128.407 39.6741 127.554 39.4509 126.604 39.1949L124.607 38.67L124.614 33.6865C124.614 31.9262 124.628 30.1592 124.634 28.3989C124.661 24.5003 124.688 20.4742 124.614 16.5192C124.492 10.3351 120.884 5.47249 114.95 3.52382L114.622 3.40941C113.721 3.07358 112.787 2.8319 111.836 2.68769L108.822 2.3435C103.689 1.7528 98.3858 1.14334 93.1548 0.745602C90.5295 0.54345 87.8267 0.548645 85.2099 0.556521C83.9418 0.563085 82.681 0.570138 81.4129 0.549791C78.6813 0.515662 75.9502 0.455399 73.212 0.394359C68.5783 0.300503 63.8263 0.197266 59.0895 0.197266C57.6731 0.197266 56.2589 0.206246 54.8469 0.224186C50.1803 0.299008 45.4252 0.588654 40.8328 0.87219C37.9527 1.04743 34.9717 1.23646 32.0379 1.36444C25.2501 1.68396 18.5087 2.65518 11.9068 4.26477C8.55991 5.14047 5.60088 7.10786 3.49839 9.85516C1.3959 12.6025 0.270134 15.9726 0.299384 19.432C0.454936 27.3835 0.454976 35.4703 0.454976 43.2931C0.454976 46.4567 0.459204 49.6198 0.467955 52.7825C0.474519 54.6235 0.447746 56.4652 0.428056 58.3062C0.380799 62.1235 0.333428 66.0688 0.555926 69.9235C1.07509 78.9606 3.04422 83.3239 13.3428 85.2667C14.1304 85.415 14.9482 85.5226 15.7437 85.6237C16.2635 85.6894 16.7893 85.7589 17.3084 85.8397C18.4623 86.0149 19.6056 86.2039 20.8428 86.3995L23.0276 86.7572L23.0683 87.2895C23.0952 87.6137 23.1288 87.8966 23.1557 88.146C23.2297 88.5891 23.248 89.0406 23.2102 89.4882C22.6365 93.8654 24.4978 96.9344 28.9084 98.8739C30.2775 99.4738 31.6335 100.101 32.9954 100.729C36.758 102.581 40.6535 104.15 44.6494 105.423C57.4165 109.105 70.521 112.43 83.1936 115.647L85.2571 116.172C96.5067 119.024 107.763 121.661 117.279 123.86C122.566 125.087 126.255 124.554 129.25 122.147C131.475 120.389 133.415 118.299 135.003 115.949C136.621 113.324 137.93 110.52 138.901 107.593C141.281 100.943 143.622 94.1515 145.888 87.5822C147.201 83.7656 148.523 79.949 149.854 76.1311C152.498 68.5366 154.049 62.1634 154.716 56.0667C155.224 51.4691 153.398 47.8469 149.702 46.1345ZM10.7843 14.5181C11.9657 13.2901 13.9203 12.7375 14.979 12.5215C20.9447 11.3922 26.9744 10.6309 33.0336 10.242C51.2699 8.79806 69.2773 8.90649 89.2339 9.16968C96.6387 9.27075 103.882 9.48662 111.09 11.0579C115.231 11.9617 116.829 13.8099 116.977 17.8837C117.038 19.3933 117.025 20.9324 117.011 22.5509C117.004 23.3333 116.998 24.1491 116.998 25.0122V25.7002L116.316 25.6871C110.699 25.6193 105.117 25.5382 99.5705 25.4442C86.7227 25.2348 74.5969 25.0595 62.1802 25.0503C49.7505 25.0634 37.0714 25.2866 24.8169 25.5019C19.3207 25.6038 13.8085 25.6961 8.28037 25.7788L7.77433 25.7855L7.626 25.2996C6.46098 21.4778 7.49276 17.9435 10.7843 14.5181ZM7.53352 32.8687H8.2083C12.5515 32.8419 16.87 32.8081 21.1638 32.7674C30.7949 32.6867 40.7488 32.6062 50.502 32.6462C58.9254 32.6935 67.4841 32.8889 75.7593 33.0779C79.2378 33.1521 82.7125 33.2327 86.1858 33.3003L100.106 33.5839C104.219 33.6715 108.329 33.7569 112.435 33.84C113.17 33.8538 113.898 33.8536 114.721 33.8464L116.69 33.84V39.1885H116.016C108.172 39.2016 100.33 39.197 92.4919 39.1747C64.9145 39.1274 36.4065 39.0735 8.24243 40.3816L7.53418 40.4159L7.53352 32.8687ZM26.9231 79.229C25.1024 79.1207 23.2745 79.0065 21.4472 78.9008C19.1034 78.719 16.7725 78.3994 14.4664 77.9433L12.7402 77.64C10.2579 77.2219 8.78122 75.6434 8.58563 73.2091C8.52525 72.4536 8.45036 71.6995 8.38342 70.9428C8.21474 69.1555 8.03956 67.308 8.00543 65.4734C7.94505 61.6759 7.95817 57.9327 7.97196 53.9743C7.97852 52.3423 7.98069 50.6856 7.97852 49.0041V48.383L8.5922 48.3292C9.01028 48.2891 9.40796 48.2486 9.78601 48.1981C10.5482 48.0988 11.3149 48.0381 12.0832 48.0157C13.9984 47.9953 15.9143 48.0026 17.8223 48.0026C19.9541 48.0026 22.078 48.0026 24.2025 47.9757C27.7973 47.9284 31.3854 47.8606 34.9802 47.793C41.5895 47.6617 48.4352 47.5307 55.1653 47.5503C68.5192 47.591 82.0955 47.7392 95.2262 47.8744C100.946 47.9348 106.662 47.9932 112.377 48.0497C113.119 48.0563 113.861 48.0564 114.67 48.0564L116.457 48.0497C116.457 48.0497 116.68 51.1313 116.687 51.489C116.818 58.2533 117.186 65.0994 115.716 72.7267C114.758 77.6906 113.638 78.7761 108.654 79.525C108.289 79.571 107.922 79.5959 107.555 79.5992C101.991 79.6596 96.4247 79.7298 90.8563 79.8079C77.8805 79.9838 64.4794 80.1656 51.2542 80.1656H49.3384C41.862 80.1531 34.2675 79.6878 26.9231 79.229ZM135.803 85.0153C135.769 85.2719 135.756 85.5148 135.737 85.7438C135.726 86.2525 135.651 86.7579 135.515 87.2482C133.316 94.1673 131.152 100.945 128.898 107.75C128.4 109.172 127.759 110.54 126.983 111.831C125.594 114.238 124.481 115.209 122.525 115.209C121.629 115.18 120.741 115.047 119.875 114.816C116.307 113.946 112.739 113.055 109.171 112.172C106.973 111.619 104.771 111.072 102.569 110.531C97.9349 109.384 93.3045 108.247 88.676 107.118C78.0269 104.508 67.0168 101.81 56.2088 99.0517C48.9858 97.2107 41.547 95.3106 34.7624 91.7664C32.7724 90.7274 32.6379 90.478 32.6779 87.9419L32.6917 87.3348L33.2987 87.281C37.2207 86.9758 41.1628 87.0348 45.0741 87.4562C45.4022 87.4831 45.7304 87.5376 46.052 87.5914C46.4817 87.6722 46.9166 87.722 47.3535 87.7398C50.7257 87.8139 54.1002 87.8946 57.4769 87.9826C65.8466 88.1985 74.4997 88.4138 82.9973 88.3534C91.8658 88.2878 100.997 87.8074 110.129 86.9436C115.39 86.4448 119.207 84.1653 121.467 80.1794L121.736 79.7003L135.862 84.4705L135.803 85.0153ZM141.657 69.4765L138.946 77.5967L124.445 73.6108L123.592 73.2668C124.12 71.0845 124 69.2743 124.344 67.2646C124.553 66.0576 124.749 62.5103 124.749 62.5103L141.805 68.8359L141.657 69.4765ZM144.233 60.9441L143.539 60.7957C137.549 59.5218 131.647 57.8661 125.869 55.8386L125.423 55.6834V46.3899L145.494 53.1139L144.233 60.9441Z" fill="black"/>
<path d="M99.519 54.3825C97.9339 53.923 96.5175 54.3491 95.0073 54.8013C94.5616 54.9326 94.1101 55.071 93.6579 55.1852C93.4491 55.239 93.2332 55.2934 93.0173 55.3538C91.8234 55.678 90.4746 56.0483 89.3956 55.5967C88.0252 55.0164 86.5517 54.7204 85.0638 54.727C82.8992 54.8027 80.7615 55.2357 78.738 56.0082C77.2035 56.542 75.833 57.4624 74.758 58.6803C73.6829 59.8983 72.9399 61.3728 72.6006 62.9616C72.2324 64.4769 72.2606 66.0615 72.682 67.5625C73.104 69.0642 73.9047 70.4314 75.008 71.5333C78.6638 75.115 83.1282 75.8704 88.2739 73.7859C89.8511 73.1092 91.6311 73.0777 93.2312 73.6986C94.708 74.1974 96.8936 74.8314 98.7753 74.5952C103.501 74.0091 106.962 69.7934 107.003 64.5733V64.4929C107.032 62.2214 106.315 60.0027 104.964 58.1769C103.613 56.351 101.7 55.0182 99.519 54.3825ZM85.1937 66.1514C84.9712 66.3522 84.71 66.5058 84.4258 66.6023C84.1416 66.6988 83.8404 66.7355 83.5417 66.7112C83.1637 66.6909 82.7876 66.6443 82.4161 66.5708C81.8274 66.4677 81.2938 66.1599 80.9098 65.7018C80.5259 65.2441 80.3152 64.665 80.3158 64.0672C80.3165 63.6937 80.3992 63.3249 80.5587 62.9869C80.7175 62.649 80.9498 62.3502 81.2373 62.112C81.5255 61.8739 81.8622 61.7023 82.2245 61.6092C82.5861 61.5161 82.9641 61.5037 83.331 61.5733L83.6297 61.6874C84.2092 61.9042 84.7133 62.2856 85.0802 62.7844C85.4471 63.2832 85.6604 63.8779 85.6945 64.496C85.7313 64.7917 85.7057 65.0917 85.619 65.3767C85.5324 65.6618 85.3873 65.9256 85.1931 66.1514H85.1937ZM98.669 64.8499C98.0652 65.5398 97.2356 65.9919 96.3285 66.1245C95.936 66.1356 95.5481 66.0319 95.2127 65.8278C94.9298 65.6159 94.6988 65.3424 94.538 65.0281C94.3765 64.7137 94.2893 64.367 94.282 64.0137C94.2282 63.6877 94.2479 63.3537 94.3385 63.0359C94.4291 62.7182 94.5892 62.4244 94.8071 62.1758C95.0322 61.9498 95.3059 61.7778 95.6072 61.6727C95.9091 61.5675 96.23 61.5321 96.5471 61.5688C96.9409 61.5528 97.332 61.6395 97.6825 61.8207C98.0323 62.0019 98.329 62.2712 98.5436 62.602C98.7583 62.9328 98.8823 63.3138 98.9053 63.7074C98.9276 64.1009 98.8469 64.4933 98.6716 64.8463L98.669 64.8499Z" fill="black"/>
<path d="M57.7709 18.2007C57.8451 19.7385 56.7726 20.2509 54.8233 20.7904L54.6821 20.8305C54.3524 20.9316 54.0134 20.9996 53.67 21.0333C52.7059 21.0537 43.8572 21.3505 42.0529 21.1077C41.3644 21.0132 40.3326 20.8778 39.9349 20.4735C39.1118 19.6373 39.213 18.6186 39.1119 17.8093C38.9905 16.7979 39.8674 16.1686 40.785 16.0019C44.0155 15.4151 46.7196 14.8626 50.1187 14.8626C51.7151 14.8552 53.3088 14.9927 54.8803 15.2734C56.6918 15.597 57.6915 16.6156 57.7709 18.2007Z" fill="black"/>
<path d="M30.2417 18.9763C30.2482 19.8125 30.0258 21.2826 28.4946 21.6738C27.0355 22.0139 25.5586 22.273 24.0709 22.4497C22.7015 22.5026 21.3304 22.4807 19.9634 22.384C18.0883 22.1871 16.4697 22.0262 14.8243 21.7834C13.0706 21.5274 12.0454 20.6098 12.0861 19.3221C12.1268 18.1013 13.0779 17.2219 14.6426 16.9817C18.5537 16.3818 27.1255 16.0629 27.9958 16.3747L28.5084 16.5634C29.0311 16.7043 29.489 17.0214 29.8048 17.4611C30.1207 17.9007 30.275 18.436 30.2417 18.9763Z" fill="black"/>
</svg>
