<svg width="162" height="160" viewBox="0 0 162 160" fill="none" xmlns="http://www.w3.org/2000/svg">
<g clip-path="url(#clip0_353_2)">
<path d="M57.2684 90.7715C58.2385 95.7557 59.9399 99.9045 62.8921 103.315C72.9921 114.981 86.0808 118.24 100.868 116.245C102.618 116.008 104.286 115.195 106.006 114.698C108.018 114.117 109.935 114.358 111.024 116.286C112.148 118.277 111.069 120.02 109.645 121.402C106.851 124.116 103.205 125.213 99.5338 125.509C84.6349 126.711 70.9693 123.498 59.5534 113.262C53.6962 108.012 50.0784 101.331 48.2892 93.7559C47.7143 91.3242 46.7028 90.6711 44.4358 90.8378C42.417 90.9487 40.3924 90.9126 38.3788 90.7295C37.265 90.6494 36.172 90.3876 35.1426 89.955C33.6652 89.3184 32.6966 87.9729 33.223 86.4515C33.7349 85.2931 34.6247 84.3427 35.7471 83.7559C36.6462 83.2617 37.9209 83.3772 39.0288 83.3549C41.4657 83.3057 43.9048 83.3398 46.6509 83.3398V71.0538C44.8066 71.0538 42.7055 71.1398 40.6157 71.0262C38.9355 70.9685 37.266 70.7355 35.6342 70.3305C34.7937 70.1546 34.0512 69.667 33.5569 68.9647C33.0626 68.2624 32.8536 67.3987 32.9717 66.5487C33.1141 64.5001 34.424 63.5156 36.2874 63.406C39.5323 63.2157 42.7893 63.2242 46.0401 63.1191C46.9262 63.0903 47.8088 62.9532 48.8623 62.8488C49.4674 61.2828 50.0615 59.7357 50.664 58.1887C52.6994 52.6754 56.266 47.8576 60.9449 44.3013C70.987 36.7993 82.0496 32.4472 94.8114 33.9903C97.5523 34.3184 100.237 35.32 102.871 36.2297C104.047 36.6123 105.08 37.3387 105.839 38.3149C106.147 38.8006 106.356 39.3425 106.454 39.9091C106.551 40.4758 106.536 41.0562 106.408 41.6169C106.27 42.0947 104.544 42.1419 103.526 42.3165C103.188 42.3126 102.854 42.2334 102.55 42.0848C86.81 36.884 74.2812 42.8364 63.2299 53.561C60.896 55.8273 59.4752 58.7966 58.7106 62.4524C59.8985 62.4524 60.8646 62.474 61.8287 62.4484C68.6741 62.2659 75.519 62.0422 82.366 61.907C84.0475 61.8964 85.7271 62.0164 87.3896 62.266C88.2454 62.3141 89.0521 62.6786 89.6546 63.2887C90.2571 63.8987 90.6115 64.7108 90.6489 65.5673C90.8235 67.4184 90.1455 69.1176 88.3583 69.6414C86.1209 70.3115 83.8027 70.6751 81.4668 70.7217C74.058 70.7985 66.6473 70.6443 59.2374 70.5996C58.4669 70.595 57.6951 70.7256 56.4454 70.8353V82.3507C61.2314 82.3507 66.2312 82.4636 71.2227 82.3133C74.9198 82.2024 78.6025 81.6366 82.2997 81.4968C84.0586 81.4312 86.0224 81.4968 87.5464 82.2253C88.2047 82.5837 88.779 83.0792 89.2293 83.6785C89.6802 84.2777 89.9972 84.9662 90.1587 85.6987C90.2985 86.7921 89.2004 88.5728 88.1509 89.1668C86.4819 90.0509 84.627 90.5287 82.7388 90.5615C75.5564 90.7584 68.365 90.7216 61.1814 90.7689C60.0807 90.7768 58.9676 90.7715 57.2684 90.7715Z" fill="black"/>
<path d="M160.792 73.0817C158.945 56.8755 152.439 41.5523 142.063 28.9672C133.511 18.4736 124.311 10.994 113.938 6.11085C105.844 2.21142 96.9778 0.180992 87.9939 0.169678C85.2333 0.173852 82.476 0.354069 79.7391 0.709201C68.3477 2.18596 56.8014 5.49061 43.4141 11.1154C25.3057 18.729 12.6975 31.8137 5.94964 49.9962C1.21631 62.4821 -0.607913 75.883 0.615615 89.1797C2.03855 104.118 5.63297 115.696 11.9246 125.606C21.0162 139.911 32.4683 149.333 46.9419 154.398C55.7158 157.473 65.3733 159.018 77.3238 159.261C84.3584 159.261 90.9074 158.411 97.2404 157.588L98.4408 157.433C112.267 155.646 124.008 150.655 134.342 142.191C144.059 134.377 151.414 124.017 155.586 112.266C160.534 98.2313 162.235 85.4104 160.792 73.0817ZM144.47 117.641C136.647 133.483 123.489 143.876 105.346 148.53C103.168 149.09 100.915 149.495 98.5347 149.919C97.3533 150.128 96.12 150.351 94.825 150.6C89.1805 151.45 81.567 151.578 77.371 151.578C75.5031 151.578 74.3092 151.552 74.2758 151.552C63.2555 151.416 53.7732 149.548 45.2953 145.832C33.9991 140.882 24.9686 132.526 17.6977 120.291C13.3075 112.914 10.5222 104.18 8.93712 92.8086C6.90372 78.3449 8.68181 63.6013 14.0962 50.0363C19.7952 35.5837 30.0452 24.6176 44.5601 17.4484C47.912 15.7892 61.5358 11.7967 65.1168 11.0682C70.1592 10.0619 75.2721 9.44643 80.4092 9.22715C100.729 8.74146 108.756 12.012 121.168 21.4882C134.164 31.4087 143.322 43.8792 148.394 58.5477C155.281 78.5313 153.966 98.4131 144.47 117.641Z" fill="black"/>
</g>
<defs>
<clipPath id="clip0_353_2">
<rect width="161.459" height="159.49" fill="white"/>
</clipPath>
</defs>
</svg>
