<svg width="159" height="145" viewBox="0 0 159 145" fill="none" xmlns="http://www.w3.org/2000/svg">
<g clip-path="url(#clip0_353_24)">
<path d="M7.50845 83.6526C3.35494 76.4611 0.867514 68.4295 0.229133 60.1497C-1.28044 40.2627 4.9035 23.4073 20.7291 10.7275C27.8199 5.05612 36.6455 1.99611 45.7251 2.06062C50.4335 2.00182 55.1377 2.36923 59.7799 3.15858C68.0745 4.62156 75.8318 7.4864 81.7014 14.1272C84.8426 12.1379 87.8369 10.1926 90.8796 8.32599C97.7987 4.0754 105.609 1.48725 113.697 0.764935C125.151 -0.304897 134.831 3.9265 143.158 11.5131C154.875 22.1891 158.662 35.7701 157.472 51.1514C156.781 59.3296 154.603 67.3131 151.044 74.7087C150.716 75.4077 150.458 76.1402 150.11 77C150.919 77.3826 151.7 77.825 152.444 78.3225C154.216 79.7008 154.043 81.5478 152.019 82.5972C151.225 83.0186 150.358 83.2831 149.463 83.3763C146.736 83.6054 145.165 85.1766 143.653 87.3491C134.374 100.62 123.377 112.604 110.95 122.988C104.426 128.475 97.634 133.649 90.8573 138.825C88.5641 140.436 86.1711 141.9 83.6927 143.208C82.5428 143.938 81.2144 144.338 79.8525 144.363C78.4906 144.389 77.1477 144.04 75.9709 143.354C73.1644 141.746 70.5424 139.813 67.8612 137.991C64.6158 135.784 61.468 133.424 58.1476 131.339C43.4266 122.094 29.8812 111.431 18.2784 98.4275C16.0397 95.9183 13.9878 93.2319 12.0017 90.516C11.6649 89.9443 11.1757 89.4783 10.5887 89.1691C10.0018 88.86 9.34042 88.7202 8.6787 88.7662C6.99559 88.7662 5.31489 88.6401 3.65055 88.3894C2.29127 88.2293 1.2142 87.5027 1.2654 86.0404C1.32053 84.4553 2.40947 83.69 3.97615 83.6579C4.97182 83.6362 5.97263 83.6526 7.50845 83.6526ZM72.6295 78.5332C75.7635 76.3673 79.1686 76.2491 82.7043 76.6876C85.4813 77.0873 88.2805 77.3157 91.0851 77.3702C106.578 77.3636 122.071 77.2205 137.563 77.2126C139.635 77.2126 140.779 76.3994 141.777 74.6529C147.646 64.3798 150.791 53.4472 150.188 41.5406C149.445 26.8386 142.247 16.397 129.204 9.87757C124.94 7.78365 120.177 6.91991 115.45 7.38342C108.822 7.87692 102.37 9.74683 96.5051 12.8737C92.8559 14.8427 89.3399 17.0612 85.7517 19.1464C82.3604 21.1154 80.1236 20.8759 77.3414 18.1271C74.6116 15.2684 71.1803 13.1741 67.39 12.0526C63.1811 10.9119 58.9234 9.68644 54.6106 9.23882C41.4031 7.86773 29.5608 11.0615 20.3937 21.2085C6.01994 37.1214 3.52586 60.3702 13.0644 79.0018C13.7135 80.2705 14.5228 81.4572 15.1837 82.5579C20.8177 81.8976 21.6926 81.3482 24.5995 77.2153C25.8763 75.2384 27.3144 73.3704 28.8992 71.6311C31.5285 68.971 34.509 69.4652 36.4032 72.72C37.174 74.2381 37.8656 75.7956 38.4753 77.3859C39.0102 75.8416 39.3941 74.838 39.7071 73.8135C40.6306 70.8147 41.3015 67.7095 42.5091 64.8346C43.4124 62.5599 44.7323 60.4739 46.4011 58.6836C49.1197 55.927 52.4453 56.6527 53.945 60.2068C54.8889 62.4811 55.5278 64.8705 55.8451 67.3124C56.6727 73.5378 57.238 79.798 57.9396 86.0404C58.1104 86.9947 58.3325 87.9392 58.6051 88.8692C59.5646 85.7798 60.1619 83.1427 61.2173 80.7037C61.9851 78.9716 63.0805 77.4043 64.4432 76.0877C66.3779 74.2204 68.4696 74.3845 70.4413 76.1743C71.177 76.8451 71.8032 77.634 72.6295 78.5332ZM50.1961 63.8797L49.1749 63.7674C48.6879 65.1155 48.1366 66.4454 47.7257 67.8165C46.5679 71.681 45.5695 75.5967 44.3034 79.4245C43.664 81.4539 42.7533 83.3875 41.596 85.1734C40.0339 87.4922 37.33 87.4771 35.6793 85.2127C34.8372 83.8981 34.175 82.4771 33.7102 80.9866C33.2646 79.7907 33.0421 78.5109 32.6161 76.8628C30.5565 79.5105 29.0974 82.1687 26.9242 83.9637C24.6835 85.8153 21.7491 86.8267 18.7536 88.3966C21.5286 91.6081 24.2668 95.1569 27.3883 98.3185C37.7108 108.816 49.3694 117.91 62.064 125.366C66.4061 127.913 70.5424 130.811 74.8853 133.356C77.174 134.698 79.7652 135.242 82.2101 133.607C85.1905 131.614 88.1138 129.53 91.005 127.411C104.551 117.572 116.934 106.223 127.914 93.585C130.451 90.6459 132.848 87.5861 135.615 84.2085C134.921 84.0517 134.218 83.9329 133.511 83.8528C115.801 83.2621 98.0285 84.202 80.394 81.6469C79.1804 81.576 77.9695 81.8195 76.8773 82.3544C75.2844 83.0291 73.6803 84.8242 72.325 84.6083C70.7944 84.3648 69.5342 82.4227 67.9649 81.0522C67.4845 82.4417 66.8662 83.8745 66.5 85.3676C65.8069 88.1984 65.3764 91.0962 64.6092 93.904C64.138 95.8612 63.3864 97.7403 62.3777 99.4828C60.5183 102.448 56.9557 102.274 55.3647 99.179C54.3296 97.315 53.6052 95.2941 53.2198 93.1971C52.3724 87.3261 51.8086 81.4132 51.2022 75.5094C50.8038 71.6377 50.5269 67.7561 50.1961 63.8797Z" fill="black"/>
</g>
<defs>
<clipPath id="clip0_353_24">
<rect width="158.177" height="144.394" fill="white"/>
</clipPath>
</defs>
</svg>
