<svg width="32" height="32" viewBox="0 0 32 32" fill="none" xmlns="http://www.w3.org/2000/svg">
<path d="M6.66667 28C5.93333 28 5.30578 27.7391 4.784 27.2173C4.26222 26.6956 4.00089 26.0676 4 25.3333V6.66667C4 5.93333 4.26133 5.30578 4.784 4.784C5.30667 4.26222 5.93422 4.00089 6.66667 4H14.6667C15.0444 4 15.3613 4.128 15.6173 4.384C15.8733 4.64 16.0009 4.95644 16 5.33333C15.9991 5.71022 15.8711 6.02711 15.616 6.284C15.3609 6.54089 15.0444 6.66844 14.6667 6.66667H6.66667V25.3333H14.6667C15.0444 25.3333 15.3613 25.4613 15.6173 25.7173C15.8733 25.9733 16.0009 26.2898 16 26.6667C15.9991 27.0436 15.8711 27.3604 15.616 27.6173C15.3609 27.8742 15.0444 28.0018 14.6667 28H6.66667ZM22.9 17.3333H13.3333C12.9556 17.3333 12.6391 17.2053 12.384 16.9493C12.1289 16.6933 12.0009 16.3769 12 16C11.9991 15.6231 12.1271 15.3067 12.384 15.0507C12.6409 14.7947 12.9573 14.6667 13.3333 14.6667H22.9L20.4 12.1667C20.1556 11.9222 20.0333 11.6222 20.0333 11.2667C20.0333 10.9111 20.1556 10.6 20.4 10.3333C20.6444 10.0667 20.9556 9.92756 21.3333 9.916C21.7111 9.90444 22.0333 10.0324 22.3 10.3L27.0667 15.0667C27.3333 15.3333 27.4667 15.6444 27.4667 16C27.4667 16.3556 27.3333 16.6667 27.0667 16.9333L22.3 21.7C22.0333 21.9667 21.7169 22.0947 21.3507 22.084C20.9844 22.0733 20.6676 21.9342 20.4 21.6667C20.1556 21.4 20.0391 21.0836 20.0507 20.7173C20.0622 20.3511 20.1898 20.0453 20.4333 19.8L22.9 17.3333Z" fill="#041421"/>
</svg>
