<svg width="32" height="32" viewBox="0 0 32 32" fill="none" xmlns="http://www.w3.org/2000/svg">
<g clip-path="url(#clip0_1_230)">
<path fill-rule="evenodd" clip-rule="evenodd" d="M10.8959 21.1053C16.0226 26.232 20.7733 26.7933 22.1679 26.8453C23.8533 26.9067 25.5733 25.5306 26.3173 24.1213C25.1306 22.7293 23.5853 21.6493 21.8933 20.4786C20.8946 21.476 19.6639 23.3293 18.0253 22.6653C17.0933 22.2906 14.7919 21.2306 12.7813 19.2186C10.7693 17.208 9.71059 14.9066 9.33325 13.976C8.66925 12.3347 10.5279 11.1013 11.5266 10.1026C10.3559 8.38265 9.29459 6.79732 7.90525 5.67065C6.47592 6.41732 5.09192 8.12398 5.15458 9.83198C5.20658 11.2266 5.76792 15.9773 10.8959 21.1053ZM22.0693 29.5106C20.1493 29.44 14.7079 28.688 9.00925 22.9907C3.31192 17.292 2.56125 11.852 2.48925 9.93065C2.38259 7.00265 4.62525 4.15865 7.21592 3.04798C7.52789 2.91327 7.86952 2.86198 8.20729 2.89915C8.54506 2.93632 8.86737 3.06066 9.14259 3.25998C11.2866 4.82398 12.7653 7.19332 14.0359 9.04932C14.3003 9.43525 14.4213 9.90145 14.3782 10.3672C14.3352 10.833 14.1306 11.2691 13.7999 11.6L11.9919 13.4093C12.4119 14.336 13.2666 15.9333 14.6666 17.3333C16.0666 18.7333 17.6639 19.588 18.5919 20.008L20.3986 18.2C20.7307 17.8686 21.1686 17.6643 21.6359 17.6227C22.1033 17.581 22.5704 17.7046 22.9559 17.972C24.8493 19.284 27.0733 20.7413 28.6946 22.8173C28.9101 23.0945 29.0472 23.4245 29.0915 23.7728C29.1358 24.1211 29.0858 24.475 28.9466 24.7973C27.8306 27.4013 25.0066 29.6186 22.0693 29.5106Z" fill="black"/>
</g>
<defs>
<clipPath id="clip0_1_230">
<rect width="32" height="32" fill="white"/>
</clipPath>
</defs>
</svg>
