<svg width="178" height="162" viewBox="0 0 178 162" fill="none" xmlns="http://www.w3.org/2000/svg">
<g clip-path="url(#clip0_353_12)">
<path d="M37.5261 139.985C39.3868 140.917 40.011 142.217 39.6113 144.333C39.2764 146.503 39.2567 148.711 39.5528 150.886C39.9972 154.981 42.1919 159.709 45.9593 160.412C48.4968 160.905 51.0744 161.163 53.6594 161.183C57.1336 161.215 60.5831 160.597 63.8295 159.359C67.8451 157.812 69.7367 154.301 68.8835 149.968C68.6865 148.956 68.4739 147.946 68.2507 146.876L68.1195 146.243C69.5332 146.374 70.922 146.525 72.2728 146.67C75.8433 147.118 79.4347 147.38 83.0328 147.458C86.6486 147.45 90.1396 147.13 93.8551 146.764C95.1731 146.633 96.5291 146.501 97.8864 146.387C97.8601 146.585 97.8345 146.778 97.8089 146.967C97.6685 147.838 97.5923 148.719 97.5805 149.603C97.6337 153.787 98.7363 157.019 100.768 158.939C102.386 160.47 104.571 161.189 107.25 161.073C113.058 160.825 117.845 160.422 122.315 159.804C125.542 159.359 127.434 157.169 127.5 153.796C127.562 150.711 127.443 147.574 127.328 144.542C127.292 143.594 127.256 142.647 127.225 141.701C127.193 140.699 127.108 139.707 127.028 138.747C127.006 138.489 126.984 138.232 126.963 137.979C128.534 137.297 130.086 136.629 131.62 135.974C135.365 134.368 138.905 132.851 142.458 131.211C151.129 127.212 157.356 121.191 160.972 113.318C161.143 112.946 161.356 112.583 161.58 112.202C161.614 112.145 161.646 112.086 161.681 112.029C161.978 112.068 162.269 112.108 162.556 112.15C163.521 112.285 164.432 112.413 165.368 112.466C166.89 112.552 168.393 112.521 169.792 112.472C174.625 112.309 176.517 110.518 177.022 105.627C177.96 96.5626 176.629 87.5472 175.338 78.8284L175.276 78.4188C174.597 73.8172 172.71 72.219 167.801 72.0845C165.712 72.0287 163.596 72.0431 161.548 72.0569C160.783 72.0622 160.019 72.0674 159.257 72.0687C154.226 57.5044 145.976 48.9819 133.361 45.334C134.364 43.2085 135.229 41.0203 135.95 38.7831C137.16 35.2809 138.302 31.9716 140.596 29.1454C142.017 27.3929 142.2 25.5802 141.085 24.2951C140.579 23.8138 139.978 23.4445 139.32 23.2114C138.662 22.9783 137.962 22.8866 137.267 22.9424C124.998 24.0837 116.199 28.6918 110.375 37.0299C110.092 37.4206 109.79 37.7967 109.47 38.1569L109.418 38.2173C108.758 38.1687 108.123 38.1109 107.504 38.0551C106.019 37.8898 104.527 37.8092 103.033 37.8137C98.8085 37.9069 94.1958 38.1025 88.93 38.4129C70.4318 39.5051 54.6263 44.2228 40.6108 52.8365C27.8608 60.6719 20.2913 71.1597 17.4677 84.9008C17.1461 86.4655 16.5363 87.3949 15.5288 87.8149C15.4691 87.1625 15.4232 86.5062 15.3773 85.865C15.3004 83.7758 15.0103 81.7005 14.5115 79.6711C14.08 78.0887 13.0928 76.7143 11.7307 75.8007C10.3686 74.8871 8.72293 74.4946 7.09502 74.6954C5.54293 74.9343 4.11716 75.6911 3.04946 76.8429C1.98176 77.9942 1.33473 79.4729 1.21344 81.0389C1.12548 82.9771 1.23703 84.9192 1.54626 86.8344C1.64931 87.6515 1.75626 88.4975 1.8278 89.3193C1.84061 89.4715 1.90504 89.614 2.01031 89.7249C0.878128 91.0605 -0.402992 92.8287 1.19454 94.9539C2.71461 96.9761 4.9757 96.5757 6.79376 96.2574L7.3187 96.1596C8.04717 95.9857 8.795 95.9056 9.54375 95.922C10.9877 96.0224 12.454 96.2128 14.0069 96.4136C14.4926 96.4793 14.9914 96.5403 15.5066 96.6053C15.5066 96.6315 15.5032 96.6578 15.5019 96.684C15.475 97.1894 15.4482 97.7033 15.3976 98.2159C14.7706 103.684 15.5125 109.222 17.5563 114.332C17.9252 115.24 18.2612 116.19 18.5854 117.109C19.0888 118.626 19.6806 120.113 20.3576 121.561C21.5086 124.03 22.932 126.364 24.6014 128.518C27.95 132.61 31.9788 137.207 37.5261 139.985ZM130.444 31.7412C129.671 33.287 128.998 34.881 128.431 36.5135C127.35 39.8759 126.385 43.4792 125.563 47.2256C125.001 49.7853 126.029 51.3185 128.706 51.9112C137.063 53.7601 143.482 58.7371 148.331 67.1219C149.849 69.9127 151.061 72.8603 151.946 75.9123C153.046 79.4066 154.243 80.9877 158.427 81.1216C160.33 81.1833 162.252 81.1689 164.287 81.1538C165.051 81.1485 165.838 81.1426 166.655 81.1406L168.264 103.028C167.503 103.2 166.768 103.356 166.055 103.513C164.012 103.953 162.083 104.366 160.229 104.966C158.894 105.395 157.209 106.317 156.499 107.618C150.247 119.012 139.482 124.327 129.778 128.024L128.516 128.503C126.065 129.435 123.528 130.399 121.061 131.414C118.644 132.407 118.491 134.981 118.417 136.219C118.23 139.332 118.154 142.497 118.079 145.559C118.052 146.7 118.024 147.84 117.991 148.98C117.978 149.416 117.98 149.853 117.983 150.416V150.833L108.192 151.855C108.066 151.042 107.929 150.247 107.798 149.465C107.415 147.458 107.151 145.431 107.006 143.394C106.868 140.659 105.99 138.692 104.393 137.546C102.687 136.322 100.212 136.123 97.2274 136.967C91.2449 138.659 85.3667 138.698 79.8581 138.594C78.2074 138.564 76.5167 138.367 74.8804 138.176C73.6938 138.037 72.4657 137.894 71.2469 137.812C69.7419 137.697 68.2291 137.76 66.7399 138.001C62.9986 138.644 61.0808 140.583 60.3194 144.481C60.0753 145.728 59.9374 147.002 59.8159 148.197C59.7398 148.955 59.7004 149.713 59.6544 150.59C59.642 150.833 59.6288 151.087 59.6137 151.352L49.1465 152.074C49.0506 151.096 48.9431 150.136 48.8374 149.19C48.5067 146.677 48.3181 144.146 48.2723 141.612C48.2769 139.219 47.9237 136.717 45.3246 134.647L43.9201 133.532C40.6966 131.075 37.6166 128.436 34.6953 125.627C31.1335 122.183 28.3575 118.01 26.5576 113.395C24.7577 108.779 23.9762 103.829 24.2667 98.8834C24.6355 90.3327 26.3368 82.9882 29.4682 76.4301C31.9721 71.1853 35.9862 66.6225 41.7417 62.4814C55.4552 52.6081 71.7261 47.4697 91.4825 46.7713C93.8696 46.6873 96.3013 46.6466 98.6536 46.6079C102.224 46.5488 105.915 46.4878 109.545 46.2718C111.261 46.1695 112.896 44.2373 113.356 43.6433C117.838 37.8931 121.974 34.3817 126.766 32.2604C127.872 31.7708 129.016 31.3318 130.342 30.8231L130.987 30.5749C130.804 30.9779 130.621 31.3652 130.444 31.7412Z" fill="black"/>
<path d="M72.4903 0.224809C66.3162 0.763004 61.1163 4.40966 57.8464 10.492C55.6392 14.5993 54.9874 18.5707 55.9096 22.2961C57.7559 29.754 63.6983 33.5517 73.5733 33.5852C73.8247 33.5983 74.0741 33.6041 74.3228 33.6041C80.2896 33.6041 85.6512 29.8906 88.776 23.5405C91.5937 17.8133 91.7138 13.0949 89.1423 9.11484C85.0612 2.80089 79.1535 -0.354081 72.4903 0.224809ZM80.0782 19.3301C78.1217 22.9498 75.3946 25.0239 72.7896 24.8218H72.7456C69.0544 24.8041 66.3418 23.8043 64.8995 21.9338C63.6662 20.333 63.3781 18.0831 64.0659 15.4289C64.411 13.9803 64.9804 12.5943 65.7537 11.3215C66.324 10.4005 67.1195 9.63991 68.066 9.11162C69.0117 8.5834 70.077 8.30485 71.1599 8.30229C72.13 8.30629 73.0876 8.51829 73.9677 8.92384C75.6499 9.65002 77.2324 10.588 78.677 11.7147C81.5826 14.0703 81.9206 15.9211 80.0782 19.3301Z" fill="black"/>
<path d="M86.2641 52.2506C74.2531 53.1865 63.8681 55.9857 54.5067 60.8091C52.7978 61.7413 51.1943 62.855 49.7241 64.1308C47.946 65.6148 47.5404 67.6601 48.7139 69.2196C48.9687 69.5792 49.3078 69.87 49.7015 70.0682C50.0952 70.2658 50.5313 70.3636 50.9717 70.3537C51.8657 70.313 52.7388 70.0689 53.5243 69.6403C60.9678 65.9582 69.4934 63.4504 79.5878 61.9736C82.5565 61.5391 85.5658 60.9975 88.5304 60.3648C90.8276 59.8765 92.1219 58.4358 92.1836 56.3106V56.2896C92.1974 55.7636 92.1003 55.2407 91.8975 54.755C91.6953 54.2693 91.3921 53.8318 91.0088 53.4713C89.9698 52.5118 88.3289 52.0845 86.2641 52.2506Z" fill="black"/>
<path d="M120.002 69.0219C119.945 69.8928 120.064 70.7664 120.351 71.5901C120.638 72.4145 121.089 73.1726 121.676 73.819C122.264 74.4649 122.974 74.986 123.767 75.3516C124.56 75.7165 125.419 75.9187 126.291 75.9449C126.39 75.9495 126.488 75.9515 126.587 75.9515C128.285 75.9469 129.914 75.2807 131.129 74.094C131.791 73.4581 132.317 72.6947 132.677 71.85C133.036 71.0053 133.22 70.0963 133.219 69.1787C133.201 65.6074 130.584 62.7668 127.262 62.711C123.081 62.6683 120.153 65.1768 120.002 69.0219Z" fill="black"/>
</g>
<defs>
<clipPath id="clip0_353_12">
<rect width="177.868" height="161.459" fill="white"/>
</clipPath>
</defs>
</svg>
