<svg width="145" height="155" viewBox="0 0 145 155" fill="none" xmlns="http://www.w3.org/2000/svg">
<g clip-path="url(#clip0_353_26)">
<path d="M144.313 50.1112C144.601 68.7403 140.013 86.2175 131.324 102.642C125.614 113.433 118.774 123.426 109.955 131.926C101.907 139.795 92.9007 146.616 83.1487 152.228C81.4919 153.131 79.7708 153.908 77.9989 154.556C77.0775 154.961 76.0554 155.078 75.0664 154.894C74.0768 154.709 73.1664 154.23 72.4518 153.52C71.6261 152.801 70.6449 152.286 69.585 152.014C51.5928 147.395 37.5077 137.063 26.5235 122.32C14.9937 106.844 7.46473 89.4751 3.27469 70.7045C1.36238 62.1376 -0.127949 53.4348 0.13084 44.5718C0.232258 38.7749 1.11456 33.0184 2.75384 27.458C3.10083 26.2898 3.6179 25.1791 4.28838 24.162C5.02053 23.0822 6.215 22.4985 7.50375 23.1119C12.6821 25.5789 18.289 25.6709 23.8049 25.9269C35.2761 26.4596 46.1212 23.7202 56.2985 18.5525C62.8625 15.2187 68.3073 10.5194 71.5786 3.68574C71.8036 3.17631 72.0643 2.68347 72.3589 2.21119C73.948 -0.159405 76.9872 -0.358566 78.4482 2.02961C83.8958 10.9382 92.1777 16.3245 101.206 20.8729C110.049 25.3282 119.408 26.3768 129.117 25.3856C131.328 25.1598 133.543 24.9863 135.762 24.8647C138.823 24.6974 140.077 25.4789 141.392 28.474C143.121 32.468 144.101 36.7462 144.283 41.0954C144.434 44.0931 144.313 47.105 144.313 50.1112ZM76.625 11.7575C76.1464 12.2602 75.7394 12.6231 75.4084 13.0457C71.9661 17.4498 67.6512 21.093 62.7357 23.747C46.6284 32.4797 29.5659 34.6322 11.7107 30.5989C10.8927 30.4139 10.0637 30.2813 9.06038 30.0898C7.9128 36.1958 7.71735 42.443 8.48103 48.6091C9.21728 55.018 10.3636 61.373 11.9129 67.6351C16.0962 85.3292 23.843 101.981 34.6786 116.571C44.8734 130.222 58.0372 139.557 74.7458 143.579C75.8603 143.848 76.8051 144.035 77.9014 143.353C87.3738 137.449 96.3547 130.909 104.081 122.8C114.897 111.449 122.743 98.187 128.343 83.6131C134.102 68.6289 135.938 53.0166 134.982 37.0431C134.825 35.7851 134.591 34.538 134.281 33.3089C123.221 36.1093 112.748 34.7814 102.685 30.5938C92.6231 26.4062 83.6071 20.5632 76.6263 11.7575H76.625Z" fill="black"/>
<path d="M68.1434 99.3176C70.0122 97.1418 71.5246 95.3697 73.0507 93.6061C81.2747 84.071 90.1217 75.0933 99.533 66.7331C100.515 65.8291 101.602 65.0483 102.772 64.4074C103.661 63.9386 104.68 63.776 105.671 63.9447C106.662 64.1134 107.57 64.604 108.254 65.3407C109.445 66.7005 109.602 68.7448 108.478 70.6368C107.844 71.6827 107.085 72.6478 106.219 73.5114C102.462 77.3141 98.5609 80.9781 94.8839 84.8557C88.6021 91.4797 82.4263 98.2066 76.2498 104.928C71.2996 110.316 69.1825 110.678 63.1278 106.578C58.0622 103.148 53.067 99.6152 48.1422 95.9792C46.1434 94.3817 44.2349 92.6741 42.4254 90.8643C41.9364 90.4084 41.5155 89.8848 41.1757 89.309C40.2042 87.6607 40.3036 85.8808 41.4116 84.6571C41.9272 84.0553 42.6266 83.6418 43.4012 83.479C44.1759 83.3161 44.9825 83.4138 45.696 83.757C47.0836 84.448 48.3966 85.2803 49.6143 86.2403C55.7062 90.5256 61.7825 94.8278 68.1434 99.3176Z" fill="black"/>
</g>
<defs>
<clipPath id="clip0_353_26">
<rect width="145" height="155" fill="white"/>
</clipPath>
</defs>
</svg>
