<svg width="64" height="64" viewBox="0 0 64 64" fill="none" xmlns="http://www.w3.org/2000/svg">
<rect width="64" height="64" fill="#041421"/>
<path d="M15.825 27.1682C11.57 27.1682 4.255 22.6431 0 20.8015V64H64V23.7807C59.86 20.0976 57.57 17.9602 53.43 19.8018C49.175 21.6434 45.035 29.0097 40.895 29.9305C36.64 30.8513 32.5 25.3266 28.36 24.4058C24.105 23.485 19.965 27.1682 15.825 27.1682Z" fill="#4C7273"/>
<path d="M30.384 55.2014C27.6533 55.2014 25.0933 54.9896 22.704 54.5659C20.3573 54.1845 18.3307 53.6125 16.624 52.8498V44.1426C18.5013 44.9477 20.5707 45.6044 22.832 46.1129C25.136 46.6213 27.312 46.8755 29.36 46.8755C31.92 46.8755 33.8187 46.6425 35.056 46.1764C36.336 45.7103 36.976 44.6934 36.976 43.1257C36.976 42.0664 36.656 41.219 36.016 40.5835C35.4187 39.9479 34.416 39.3971 33.008 38.931C31.6427 38.4225 29.7653 37.8293 27.376 37.1514C24.56 36.304 22.32 35.3718 20.656 34.3549C18.992 33.2957 17.7973 32.0245 17.072 30.5416C16.3467 29.0586 15.984 27.2366 15.984 25.0757C15.984 21.1776 17.392 18.1904 20.208 16.1143C23.024 14.0381 27.184 13 32.688 13C35.0773 13 37.4027 13.1907 39.664 13.572C41.9253 13.911 43.76 14.3135 45.168 14.7796V23.5504C43.3333 22.8301 41.4773 22.3004 39.6 21.9614C37.7653 21.6225 35.9733 21.453 34.224 21.453C31.92 21.453 30.0427 21.6648 28.592 22.0886C27.184 22.5123 26.48 23.4868 26.48 25.0121C26.48 25.9019 26.736 26.6222 27.248 27.1731C27.76 27.6815 28.6347 28.1476 29.872 28.5713C31.152 28.995 32.88 29.5035 35.056 30.0967C38.4267 30.9864 41.008 32.0669 42.8 33.338C44.592 34.5668 45.8293 36.0074 46.512 37.6599C47.1947 39.27 47.536 41.0919 47.536 43.1257C47.536 46.7272 46.128 49.6508 43.312 51.8965C40.496 54.0998 36.1867 55.2014 30.384 55.2014Z" fill="#D0D6D6"/>
</svg>
