<svg width="160" height="145" viewBox="0 0 160 145" fill="none" xmlns="http://www.w3.org/2000/svg">
<path d="M146.161 122.484C146.901 122.528 147.674 122.597 148.448 122.616C151.486 122.681 153.942 123.311 154.513 127.016C154.796 128.845 155.987 130.515 156.531 132.327C157.45 135.378 156.232 137.639 153.249 138.663C152.399 138.957 151.51 139.123 150.611 139.159C133.447 139.743 116.28 140.261 99.1165 140.871C86.5509 141.318 73.9893 141.89 61.425 142.387C54.5813 142.657 47.7357 142.887 40.8914 143.135C33.1467 143.416 25.4091 143.769 17.6643 143.943C14.187 144.05 10.7063 143.926 7.2456 143.569C2.69326 143.06 1.27292 141.229 1.25914 136.657C1.2552 135.646 1.27819 134.635 1.27688 133.624C1.26966 129.814 2.3769 128.472 6.28342 128.078C8.38369 127.866 10.5174 128.04 12.9938 128.04C13.4093 109.089 13.8162 90.5214 14.2343 71.4122C12.7903 72.4361 11.5794 73.3379 10.3258 74.1754C5.63627 77.3113 1.58208 75.4224 1.08524 69.8376C0.837141 67.0423 0.974965 64.1983 0.552284 61.4364C-0.300955 55.8438 2.25874 52.0507 6.46521 48.8852C15.079 42.4052 23.53 35.7048 32.2593 29.3784C46.0999 19.3936 60.455 10.1415 75.2652 1.66096C77.9562 0.112658 79.6751 0.129367 82.2112 1.60744C96.86 10.1444 111.39 18.8468 125.422 28.3945C134.883 34.8326 144.701 40.7514 154.423 46.7996C156.91 48.3466 158.502 50.0155 158.28 53.2466C158.113 55.6751 158.653 58.1568 158.889 60.6134C159.125 63.08 159.358 65.5117 158.088 67.8463C156.529 70.7119 154.523 71.8014 151.433 70.7624C149.145 69.9938 147.015 68.752 144.948 67.7833C145.349 85.8549 145.751 103.992 146.161 122.484ZM138.047 123.141C138.047 121.051 138.06 119.278 138.047 117.505C137.886 99.8802 137.689 82.2555 137.604 64.6296C137.596 62.8857 136.887 62.092 135.541 61.2217C124.989 54.3997 114.496 47.4872 103.98 40.6127C95.9228 35.3428 87.8537 30.0729 79.7723 24.803C77.6398 26.3933 75.703 27.9127 73.69 29.3317C56.7127 41.2879 39.7184 53.22 22.707 65.1277C20.5732 66.615 19.5441 68.1364 19.6222 70.8707C20.0875 87.1479 20.3573 103.425 20.7123 119.702C20.7655 122.131 20.925 124.562 21.0504 127.316L27.6748 126.851C27.6748 124.034 27.6544 121.686 27.6787 119.339C27.8329 104.19 27.1412 89.0237 28.6685 73.9023C29.036 70.2623 29.3629 69.7976 32.9622 69.0454C33.8391 68.8623 34.7343 68.7533 35.6263 68.6569C40.6453 68.1141 45.6571 67.4663 50.6886 67.0764C62.2113 66.1831 73.7353 65.2603 85.2743 64.648C96.2588 64.0651 107.262 63.9136 118.257 63.4667C124.564 63.2114 127.491 65.4894 127.931 71.7554C128.544 80.4847 129.069 89.2278 129.365 97.9742C129.607 105.153 129.448 112.348 129.496 119.531C129.506 120.821 129.662 122.11 129.766 123.628L138.047 123.141ZM121.183 71.1155C109.041 69.8737 43.7944 72.6638 34.0091 74.8822C33.9526 75.7965 33.8306 76.7777 33.8424 77.7563C34.0336 93.3588 34.2401 108.961 34.462 124.563C34.5506 125.273 34.7043 125.973 34.9214 126.655L44.1712 126.099C44.1712 120.6 44.2368 115.549 44.1449 110.5C44.1003 107.958 45.3178 106.483 47.5913 105.775C48.7731 105.433 49.9802 105.186 51.2012 105.036C53.1742 104.753 55.1583 104.555 57.189 104.314C57.189 103.277 57.166 102.513 57.1929 101.754C57.3531 97.1596 57.3938 92.5607 57.7436 87.9827C57.9352 85.4788 58.8659 84.533 61.3712 84.3473C68.7491 83.7992 76.1361 83.3851 83.5324 83.1048C86.1099 83.0097 87.1482 84.1116 87.6641 86.6326C87.9784 88.1685 88.1491 89.7358 88.3493 91.2926C88.7864 94.6958 89.2025 98.1008 89.6259 101.517C90.1759 101.577 90.7298 101.598 91.2831 101.583C97.0733 100.865 98.8421 102.926 99.8332 108.127C100.854 113.485 101.686 118.879 102.675 124.694L122.029 123.955C121.742 106.099 121.464 88.7224 121.183 71.1142V71.1155ZM79.4441 7.23276C78.2673 7.99673 77.3504 8.63916 76.3895 9.20886C54.1442 22.4013 33.2215 37.5208 12.4195 52.8351C9.34522 55.0988 8.17891 57.4408 8.78602 60.9797C9.0118 62.2924 9.16867 63.6228 9.42005 65.3831C12.5285 63.1437 15.3271 61.1167 18.1362 59.1043C36.4699 45.9526 54.8073 32.8042 73.1485 19.6587C73.9669 19.0719 74.8484 18.5703 75.7154 18.0537C76.4689 17.5507 77.3648 17.306 78.2699 17.356C79.1743 17.4061 80.0381 17.7485 80.7312 18.3316C82.4481 19.5944 84.175 20.8558 85.9819 21.9828C106.548 34.807 126.539 48.5532 147.642 60.5183C148.569 61.0433 149.526 61.5172 150.718 62.1466C150.948 59.8842 151.003 58.0772 151.341 56.328C151.786 54.0197 150.94 52.6433 148.986 51.3766C133.161 41.1187 117.458 30.672 101.592 20.4784C94.4257 15.8736 86.9729 11.715 79.4441 7.23151V7.23276ZM6.44487 138.172C8.31832 138.439 10.2056 138.599 12.0972 138.649C22.747 138.301 33.3934 137.851 44.0419 137.454C52.5618 137.137 61.085 136.884 69.6036 136.535C78.4576 136.172 87.305 135.624 96.161 135.344C110.847 134.879 125.56 135.049 140.186 133.304C142.523 133.025 144.878 132.887 147.214 132.605C148.143 132.492 149.446 132.645 149.412 131.146C149.374 129.562 148.141 129.938 147.168 129.969C146.944 129.977 146.721 130.018 146.497 130.027C138.872 130.324 131.249 130.72 123.621 130.893C105.105 131.315 86.585 131.594 68.0691 132.001C47.9851 132.443 27.9012 132.964 7.81727 133.456C7.28235 133.469 6.74809 133.54 6.00052 133.601C6.14688 135.093 6.27291 136.392 6.44487 138.173V138.172ZM67.1489 125.519V109.228C61.2419 109.543 55.5974 109.228 49.966 110.449C50.5915 115.765 51.1756 120.731 51.7381 125.519H67.1489ZM92.8846 124.641C92.3903 119.21 91.9224 114.064 91.4597 108.972H74.8156C75.5704 114.551 76.2805 119.797 77.0202 125.261L92.8846 124.641ZM81.843 88.3188C75.6898 88.2059 69.6502 87.9506 63.2791 88.7533C63.8876 93.8917 64.4605 98.7171 65.0329 103.567L81.843 101.873V88.3188Z" fill="black"/>
</svg>
